<mxfile host="app.diagrams.net" agent="Mozilla/5.0 (Windows NT 10.0; Win64; x64; rv:128.0) Gecko/20100101 Firefox/128.0" version="26.2.14">
  <diagram name="Страница — 1" id="WyLN26XSXVb4MPphpkSh">
    <mxGraphModel dx="1830" dy="1985" grid="1" gridSize="10" guides="1" tooltips="1" connect="1" arrows="1" fold="1" page="1" pageScale="1" pageWidth="827" pageHeight="1169" math="0" shadow="0">
      <root>
        <mxCell id="0" />
        <mxCell id="1" parent="0" />
        <mxCell id="XChZpc23m_ZPnFrmhCxJ-3" style="edgeStyle=orthogonalEdgeStyle;rounded=0;orthogonalLoop=1;jettySize=auto;html=1;exitX=0.5;exitY=1;exitDx=0;exitDy=0;exitPerimeter=0;entryX=0.5;entryY=0;entryDx=0;entryDy=0;" edge="1" parent="1" source="XChZpc23m_ZPnFrmhCxJ-1" target="XChZpc23m_ZPnFrmhCxJ-2">
          <mxGeometry relative="1" as="geometry" />
        </mxCell>
        <mxCell id="XChZpc23m_ZPnFrmhCxJ-1" value="&lt;div&gt;начало&lt;/div&gt;" style="strokeWidth=2;html=1;shape=mxgraph.flowchart.terminator;whiteSpace=wrap;" vertex="1" parent="1">
          <mxGeometry x="70" y="50" width="140" height="70" as="geometry" />
        </mxCell>
        <mxCell id="XChZpc23m_ZPnFrmhCxJ-6" style="edgeStyle=orthogonalEdgeStyle;rounded=0;orthogonalLoop=1;jettySize=auto;html=1;exitX=0.5;exitY=1;exitDx=0;exitDy=0;entryX=0.5;entryY=0;entryDx=0;entryDy=0;" edge="1" parent="1" source="XChZpc23m_ZPnFrmhCxJ-2" target="XChZpc23m_ZPnFrmhCxJ-4">
          <mxGeometry relative="1" as="geometry" />
        </mxCell>
        <mxCell id="XChZpc23m_ZPnFrmhCxJ-2" value="запуск сервера" style="rounded=1;whiteSpace=wrap;html=1;absoluteArcSize=1;arcSize=14;strokeWidth=2;" vertex="1" parent="1">
          <mxGeometry x="70" y="150" width="140" height="70" as="geometry" />
        </mxCell>
        <mxCell id="XChZpc23m_ZPnFrmhCxJ-9" style="edgeStyle=orthogonalEdgeStyle;rounded=0;orthogonalLoop=1;jettySize=auto;html=1;exitX=0.5;exitY=1;exitDx=0;exitDy=0;entryX=0.5;entryY=0;entryDx=0;entryDy=0;" edge="1" parent="1" source="XChZpc23m_ZPnFrmhCxJ-4" target="XChZpc23m_ZPnFrmhCxJ-7">
          <mxGeometry relative="1" as="geometry" />
        </mxCell>
        <mxCell id="XChZpc23m_ZPnFrmhCxJ-4" value="" style="verticalLabelPosition=bottom;verticalAlign=top;html=1;shape=hexagon;perimeter=hexagonPerimeter2;arcSize=6;size=0.27;" vertex="1" parent="1">
          <mxGeometry x="70" y="240" width="140" height="70" as="geometry" />
        </mxCell>
        <mxCell id="XChZpc23m_ZPnFrmhCxJ-5" value="пока истинна" style="text;html=1;align=center;verticalAlign=middle;resizable=0;points=[];autosize=1;strokeColor=none;fillColor=none;" vertex="1" parent="1">
          <mxGeometry x="90" y="260" width="100" height="30" as="geometry" />
        </mxCell>
        <mxCell id="XChZpc23m_ZPnFrmhCxJ-26" style="edgeStyle=orthogonalEdgeStyle;rounded=0;orthogonalLoop=1;jettySize=auto;html=1;exitX=1;exitY=0.5;exitDx=0;exitDy=0;entryX=0;entryY=0.5;entryDx=0;entryDy=0;" edge="1" parent="1" source="XChZpc23m_ZPnFrmhCxJ-7" target="XChZpc23m_ZPnFrmhCxJ-4">
          <mxGeometry relative="1" as="geometry">
            <Array as="points">
              <mxPoint x="270" y="360" />
              <mxPoint x="270" y="790" />
              <mxPoint x="30" y="790" />
              <mxPoint x="30" y="275" />
            </Array>
          </mxGeometry>
        </mxCell>
        <mxCell id="XChZpc23m_ZPnFrmhCxJ-7" value="" style="verticalLabelPosition=bottom;verticalAlign=top;html=1;shape=hexagon;perimeter=hexagonPerimeter2;arcSize=6;size=0.27;" vertex="1" parent="1">
          <mxGeometry x="70" y="325" width="140" height="70" as="geometry" />
        </mxCell>
        <mxCell id="XChZpc23m_ZPnFrmhCxJ-8" value="&lt;div&gt;обход&lt;/div&gt;&lt;div&gt;&amp;nbsp;подключенных&lt;/div&gt;&lt;div&gt;&amp;nbsp;сокетов&lt;/div&gt;" style="text;html=1;align=center;verticalAlign=middle;resizable=0;points=[];autosize=1;strokeColor=none;fillColor=none;" vertex="1" parent="1">
          <mxGeometry x="85" y="330" width="110" height="60" as="geometry" />
        </mxCell>
        <mxCell id="XChZpc23m_ZPnFrmhCxJ-18" style="edgeStyle=orthogonalEdgeStyle;rounded=0;orthogonalLoop=1;jettySize=auto;html=1;exitX=0.5;exitY=1;exitDx=0;exitDy=0;exitPerimeter=0;entryX=0.5;entryY=0;entryDx=0;entryDy=0;" edge="1" parent="1" source="XChZpc23m_ZPnFrmhCxJ-10" target="XChZpc23m_ZPnFrmhCxJ-16">
          <mxGeometry relative="1" as="geometry" />
        </mxCell>
        <mxCell id="XChZpc23m_ZPnFrmhCxJ-19" value="да" style="edgeLabel;html=1;align=center;verticalAlign=middle;resizable=0;points=[];" vertex="1" connectable="0" parent="XChZpc23m_ZPnFrmhCxJ-18">
          <mxGeometry x="-0.3571" y="1" relative="1" as="geometry">
            <mxPoint x="-21" as="offset" />
          </mxGeometry>
        </mxCell>
        <mxCell id="XChZpc23m_ZPnFrmhCxJ-22" style="edgeStyle=orthogonalEdgeStyle;rounded=0;orthogonalLoop=1;jettySize=auto;html=1;exitX=1;exitY=0.5;exitDx=0;exitDy=0;exitPerimeter=0;entryX=0.5;entryY=0;entryDx=0;entryDy=0;" edge="1" parent="1" source="XChZpc23m_ZPnFrmhCxJ-10" target="XChZpc23m_ZPnFrmhCxJ-20">
          <mxGeometry relative="1" as="geometry">
            <Array as="points">
              <mxPoint x="230" y="455" />
              <mxPoint x="230" y="600" />
              <mxPoint x="140" y="600" />
            </Array>
          </mxGeometry>
        </mxCell>
        <mxCell id="XChZpc23m_ZPnFrmhCxJ-24" value="нет" style="edgeLabel;html=1;align=center;verticalAlign=middle;resizable=0;points=[];" vertex="1" connectable="0" parent="XChZpc23m_ZPnFrmhCxJ-22">
          <mxGeometry x="-0.6655" y="-1" relative="1" as="geometry">
            <mxPoint x="-9" y="-41" as="offset" />
          </mxGeometry>
        </mxCell>
        <mxCell id="XChZpc23m_ZPnFrmhCxJ-10" value="&lt;div&gt;если сокет не обрабатывается&lt;br&gt;&lt;/div&gt;" style="strokeWidth=2;html=1;shape=mxgraph.flowchart.decision;whiteSpace=wrap;" vertex="1" parent="1">
          <mxGeometry x="70" y="420" width="140" height="70" as="geometry" />
        </mxCell>
        <mxCell id="XChZpc23m_ZPnFrmhCxJ-11" style="edgeStyle=orthogonalEdgeStyle;rounded=0;orthogonalLoop=1;jettySize=auto;html=1;exitX=0.5;exitY=1;exitDx=0;exitDy=0;entryX=0.5;entryY=0;entryDx=0;entryDy=0;entryPerimeter=0;" edge="1" parent="1" source="XChZpc23m_ZPnFrmhCxJ-7" target="XChZpc23m_ZPnFrmhCxJ-10">
          <mxGeometry relative="1" as="geometry" />
        </mxCell>
        <mxCell id="XChZpc23m_ZPnFrmhCxJ-23" style="edgeStyle=orthogonalEdgeStyle;rounded=0;orthogonalLoop=1;jettySize=auto;html=1;exitX=0.5;exitY=1;exitDx=0;exitDy=0;entryX=0.5;entryY=0;entryDx=0;entryDy=0;" edge="1" parent="1" source="XChZpc23m_ZPnFrmhCxJ-16" target="XChZpc23m_ZPnFrmhCxJ-20">
          <mxGeometry relative="1" as="geometry" />
        </mxCell>
        <mxCell id="XChZpc23m_ZPnFrmhCxJ-16" value="" style="verticalLabelPosition=bottom;verticalAlign=top;html=1;shape=process;whiteSpace=wrap;rounded=1;size=0.14;arcSize=6;" vertex="1" parent="1">
          <mxGeometry x="70" y="518" width="140" height="70" as="geometry" />
        </mxCell>
        <mxCell id="XChZpc23m_ZPnFrmhCxJ-17" value="&lt;div&gt;обработка&lt;/div&gt;&lt;div&gt;сокета&lt;/div&gt;" style="text;html=1;align=center;verticalAlign=middle;resizable=0;points=[];autosize=1;strokeColor=none;fillColor=none;" vertex="1" parent="1">
          <mxGeometry x="100" y="533" width="80" height="40" as="geometry" />
        </mxCell>
        <mxCell id="XChZpc23m_ZPnFrmhCxJ-25" style="edgeStyle=orthogonalEdgeStyle;rounded=0;orthogonalLoop=1;jettySize=auto;html=1;exitX=0.5;exitY=1;exitDx=0;exitDy=0;entryX=0;entryY=0.5;entryDx=0;entryDy=0;" edge="1" parent="1" source="XChZpc23m_ZPnFrmhCxJ-20" target="XChZpc23m_ZPnFrmhCxJ-7">
          <mxGeometry relative="1" as="geometry" />
        </mxCell>
        <mxCell id="XChZpc23m_ZPnFrmhCxJ-20" value="" style="verticalLabelPosition=bottom;verticalAlign=top;html=1;shape=process;whiteSpace=wrap;rounded=1;size=0.14;arcSize=6;" vertex="1" parent="1">
          <mxGeometry x="70" y="620" width="140" height="70" as="geometry" />
        </mxCell>
        <mxCell id="XChZpc23m_ZPnFrmhCxJ-21" value="&lt;div&gt;прослушивание&lt;/div&gt;&lt;div&gt;подключения&lt;br&gt;&lt;/div&gt;" style="text;html=1;align=center;verticalAlign=middle;resizable=0;points=[];autosize=1;strokeColor=none;fillColor=none;" vertex="1" parent="1">
          <mxGeometry x="85" y="635" width="110" height="40" as="geometry" />
        </mxCell>
        <mxCell id="XChZpc23m_ZPnFrmhCxJ-27" value="&lt;font style=&quot;font-size: 18px;&quot;&gt;Работа сервера&lt;/font&gt;" style="text;html=1;align=center;verticalAlign=middle;resizable=0;points=[];autosize=1;strokeColor=none;fillColor=none;" vertex="1" parent="1">
          <mxGeometry x="60" y="-5" width="160" height="40" as="geometry" />
        </mxCell>
        <mxCell id="XChZpc23m_ZPnFrmhCxJ-32" style="edgeStyle=orthogonalEdgeStyle;rounded=0;orthogonalLoop=1;jettySize=auto;html=1;exitX=0.5;exitY=1;exitDx=0;exitDy=0;exitPerimeter=0;entryX=0.5;entryY=0;entryDx=0;entryDy=0;" edge="1" parent="1" source="XChZpc23m_ZPnFrmhCxJ-28" target="XChZpc23m_ZPnFrmhCxJ-30">
          <mxGeometry relative="1" as="geometry" />
        </mxCell>
        <mxCell id="XChZpc23m_ZPnFrmhCxJ-28" value="&lt;div&gt;начало&lt;/div&gt;" style="strokeWidth=2;html=1;shape=mxgraph.flowchart.terminator;whiteSpace=wrap;" vertex="1" parent="1">
          <mxGeometry x="344" y="50" width="140" height="70" as="geometry" />
        </mxCell>
        <mxCell id="XChZpc23m_ZPnFrmhCxJ-29" value="&lt;font style=&quot;font-size: 18px;&quot;&gt;прослушивание подключений&lt;/font&gt;" style="text;html=1;align=center;verticalAlign=middle;resizable=0;points=[];autosize=1;strokeColor=none;fillColor=none;" vertex="1" parent="1">
          <mxGeometry x="279" y="-5" width="270" height="40" as="geometry" />
        </mxCell>
        <mxCell id="XChZpc23m_ZPnFrmhCxJ-34" style="edgeStyle=orthogonalEdgeStyle;rounded=0;orthogonalLoop=1;jettySize=auto;html=1;exitX=0.5;exitY=1;exitDx=0;exitDy=0;entryX=0.5;entryY=0;entryDx=0;entryDy=0;" edge="1" parent="1" source="XChZpc23m_ZPnFrmhCxJ-30" target="XChZpc23m_ZPnFrmhCxJ-33">
          <mxGeometry relative="1" as="geometry" />
        </mxCell>
        <mxCell id="XChZpc23m_ZPnFrmhCxJ-30" value="&lt;div&gt;получение&lt;/div&gt;&lt;div&gt;подключения&lt;/div&gt;" style="shape=parallelogram;html=1;strokeWidth=2;perimeter=parallelogramPerimeter;whiteSpace=wrap;rounded=1;arcSize=12;size=0.23;" vertex="1" parent="1">
          <mxGeometry x="344" y="150" width="140" height="70" as="geometry" />
        </mxCell>
        <mxCell id="XChZpc23m_ZPnFrmhCxJ-36" style="edgeStyle=orthogonalEdgeStyle;rounded=0;orthogonalLoop=1;jettySize=auto;html=1;exitX=0.5;exitY=1;exitDx=0;exitDy=0;entryX=0.5;entryY=0;entryDx=0;entryDy=0;" edge="1" parent="1" source="XChZpc23m_ZPnFrmhCxJ-33" target="XChZpc23m_ZPnFrmhCxJ-35">
          <mxGeometry relative="1" as="geometry" />
        </mxCell>
        <mxCell id="XChZpc23m_ZPnFrmhCxJ-33" value="&lt;div&gt;добавление в список&lt;/div&gt;&lt;div&gt;подключенных сокетов&lt;/div&gt;&lt;div&gt;нового сокета&lt;br&gt;&lt;/div&gt;" style="rounded=1;whiteSpace=wrap;html=1;absoluteArcSize=1;arcSize=14;strokeWidth=2;" vertex="1" parent="1">
          <mxGeometry x="344" y="250" width="140" height="70" as="geometry" />
        </mxCell>
        <mxCell id="XChZpc23m_ZPnFrmhCxJ-35" value="&lt;div&gt;отправка&lt;/div&gt;&lt;div&gt;сообщения о&lt;/div&gt;&lt;div&gt;подключении&lt;br&gt;&lt;/div&gt;" style="shape=parallelogram;html=1;strokeWidth=2;perimeter=parallelogramPerimeter;whiteSpace=wrap;rounded=1;arcSize=12;size=0.23;" vertex="1" parent="1">
          <mxGeometry x="344" y="350" width="140" height="70" as="geometry" />
        </mxCell>
        <mxCell id="XChZpc23m_ZPnFrmhCxJ-37" value="конец" style="strokeWidth=2;html=1;shape=mxgraph.flowchart.terminator;whiteSpace=wrap;" vertex="1" parent="1">
          <mxGeometry x="344" y="448" width="140" height="70" as="geometry" />
        </mxCell>
        <mxCell id="XChZpc23m_ZPnFrmhCxJ-38" style="edgeStyle=orthogonalEdgeStyle;rounded=0;orthogonalLoop=1;jettySize=auto;html=1;exitX=0.5;exitY=1;exitDx=0;exitDy=0;entryX=0.5;entryY=0;entryDx=0;entryDy=0;entryPerimeter=0;" edge="1" parent="1" source="XChZpc23m_ZPnFrmhCxJ-35" target="XChZpc23m_ZPnFrmhCxJ-37">
          <mxGeometry relative="1" as="geometry" />
        </mxCell>
        <mxCell id="XChZpc23m_ZPnFrmhCxJ-43" style="edgeStyle=orthogonalEdgeStyle;rounded=0;orthogonalLoop=1;jettySize=auto;html=1;exitX=0.5;exitY=1;exitDx=0;exitDy=0;exitPerimeter=0;entryX=0.5;entryY=0;entryDx=0;entryDy=0;" edge="1" parent="1" source="XChZpc23m_ZPnFrmhCxJ-39" target="XChZpc23m_ZPnFrmhCxJ-40">
          <mxGeometry relative="1" as="geometry" />
        </mxCell>
        <mxCell id="XChZpc23m_ZPnFrmhCxJ-39" value="&lt;div&gt;начало&lt;/div&gt;" style="strokeWidth=2;html=1;shape=mxgraph.flowchart.terminator;whiteSpace=wrap;" vertex="1" parent="1">
          <mxGeometry x="630" y="50" width="140" height="70" as="geometry" />
        </mxCell>
        <mxCell id="XChZpc23m_ZPnFrmhCxJ-45" style="edgeStyle=orthogonalEdgeStyle;rounded=0;orthogonalLoop=1;jettySize=auto;html=1;exitX=0.5;exitY=1;exitDx=0;exitDy=0;entryX=0.5;entryY=0;entryDx=0;entryDy=0;" edge="1" parent="1" source="XChZpc23m_ZPnFrmhCxJ-40" target="XChZpc23m_ZPnFrmhCxJ-44">
          <mxGeometry relative="1" as="geometry" />
        </mxCell>
        <mxCell id="XChZpc23m_ZPnFrmhCxJ-40" value="&lt;div&gt;получение&lt;/div&gt;&lt;div&gt;сообщения&lt;br&gt;&lt;/div&gt;" style="shape=parallelogram;html=1;strokeWidth=2;perimeter=parallelogramPerimeter;whiteSpace=wrap;rounded=1;arcSize=12;size=0.23;" vertex="1" parent="1">
          <mxGeometry x="630" y="150" width="140" height="70" as="geometry" />
        </mxCell>
        <mxCell id="XChZpc23m_ZPnFrmhCxJ-44" value="&lt;div&gt;ожидание доступа&amp;nbsp;&lt;/div&gt;&lt;div&gt;к БД&lt;/div&gt;" style="rounded=1;whiteSpace=wrap;html=1;absoluteArcSize=1;arcSize=14;strokeWidth=2;" vertex="1" parent="1">
          <mxGeometry x="630" y="250" width="140" height="70" as="geometry" />
        </mxCell>
        <mxCell id="XChZpc23m_ZPnFrmhCxJ-48" style="edgeStyle=orthogonalEdgeStyle;rounded=0;orthogonalLoop=1;jettySize=auto;html=1;exitX=1;exitY=0.5;exitDx=0;exitDy=0;exitPerimeter=0;entryX=0.5;entryY=0;entryDx=0;entryDy=0;" edge="1" parent="1" source="XChZpc23m_ZPnFrmhCxJ-46" target="XChZpc23m_ZPnFrmhCxJ-47">
          <mxGeometry relative="1" as="geometry" />
        </mxCell>
        <mxCell id="XChZpc23m_ZPnFrmhCxJ-54" value="да" style="edgeLabel;html=1;align=center;verticalAlign=middle;resizable=0;points=[];" vertex="1" connectable="0" parent="XChZpc23m_ZPnFrmhCxJ-48">
          <mxGeometry x="-0.8371" relative="1" as="geometry">
            <mxPoint y="-15" as="offset" />
          </mxGeometry>
        </mxCell>
        <mxCell id="XChZpc23m_ZPnFrmhCxJ-52" style="edgeStyle=orthogonalEdgeStyle;rounded=0;orthogonalLoop=1;jettySize=auto;html=1;exitX=0.5;exitY=1;exitDx=0;exitDy=0;exitPerimeter=0;entryX=0.5;entryY=0;entryDx=0;entryDy=0;" edge="1" parent="1" source="XChZpc23m_ZPnFrmhCxJ-46" target="XChZpc23m_ZPnFrmhCxJ-51">
          <mxGeometry relative="1" as="geometry" />
        </mxCell>
        <mxCell id="XChZpc23m_ZPnFrmhCxJ-55" value="&lt;div&gt;нет&lt;/div&gt;" style="edgeLabel;html=1;align=center;verticalAlign=middle;resizable=0;points=[];" vertex="1" connectable="0" parent="XChZpc23m_ZPnFrmhCxJ-52">
          <mxGeometry x="-0.1275" relative="1" as="geometry">
            <mxPoint x="-20" y="2" as="offset" />
          </mxGeometry>
        </mxCell>
        <mxCell id="XChZpc23m_ZPnFrmhCxJ-46" value="&lt;div&gt;если клиент&lt;/div&gt;&lt;div&gt;отключился&lt;/div&gt;" style="strokeWidth=2;html=1;shape=mxgraph.flowchart.decision;whiteSpace=wrap;" vertex="1" parent="1">
          <mxGeometry x="630" y="350" width="140" height="70" as="geometry" />
        </mxCell>
        <mxCell id="XChZpc23m_ZPnFrmhCxJ-47" value="&lt;div&gt;Удаление из списка&lt;/div&gt;&lt;div&gt;подключенных сокетов&lt;/div&gt;&lt;div&gt;обрабатываемый сокет&lt;br&gt;&lt;/div&gt;" style="rounded=1;whiteSpace=wrap;html=1;absoluteArcSize=1;arcSize=14;strokeWidth=2;" vertex="1" parent="1">
          <mxGeometry x="780" y="480" width="140" height="70" as="geometry" />
        </mxCell>
        <mxCell id="XChZpc23m_ZPnFrmhCxJ-50" style="edgeStyle=orthogonalEdgeStyle;rounded=0;orthogonalLoop=1;jettySize=auto;html=1;exitX=0.5;exitY=1;exitDx=0;exitDy=0;entryX=0.5;entryY=0;entryDx=0;entryDy=0;entryPerimeter=0;" edge="1" parent="1" source="XChZpc23m_ZPnFrmhCxJ-44" target="XChZpc23m_ZPnFrmhCxJ-46">
          <mxGeometry relative="1" as="geometry" />
        </mxCell>
        <mxCell id="XChZpc23m_ZPnFrmhCxJ-57" style="edgeStyle=orthogonalEdgeStyle;rounded=0;orthogonalLoop=1;jettySize=auto;html=1;exitX=0.5;exitY=1;exitDx=0;exitDy=0;entryX=0.5;entryY=0;entryDx=0;entryDy=0;" edge="1" parent="1" source="XChZpc23m_ZPnFrmhCxJ-51" target="XChZpc23m_ZPnFrmhCxJ-56">
          <mxGeometry relative="1" as="geometry" />
        </mxCell>
        <mxCell id="XChZpc23m_ZPnFrmhCxJ-51" value="чтение сообщения" style="rounded=1;whiteSpace=wrap;html=1;absoluteArcSize=1;arcSize=14;strokeWidth=2;" vertex="1" parent="1">
          <mxGeometry x="630" y="480" width="140" height="70" as="geometry" />
        </mxCell>
        <mxCell id="XChZpc23m_ZPnFrmhCxJ-59" style="edgeStyle=orthogonalEdgeStyle;rounded=0;orthogonalLoop=1;jettySize=auto;html=1;exitX=0.5;exitY=1;exitDx=0;exitDy=0;entryX=0.5;entryY=0;entryDx=0;entryDy=0;" edge="1" parent="1" source="XChZpc23m_ZPnFrmhCxJ-56" target="XChZpc23m_ZPnFrmhCxJ-58">
          <mxGeometry relative="1" as="geometry" />
        </mxCell>
        <mxCell id="XChZpc23m_ZPnFrmhCxJ-56" value="обработка команды" style="rounded=1;whiteSpace=wrap;html=1;absoluteArcSize=1;arcSize=14;strokeWidth=2;" vertex="1" parent="1">
          <mxGeometry x="630" y="573" width="140" height="70" as="geometry" />
        </mxCell>
        <mxCell id="XChZpc23m_ZPnFrmhCxJ-61" style="edgeStyle=orthogonalEdgeStyle;rounded=0;orthogonalLoop=1;jettySize=auto;html=1;exitX=0.5;exitY=1;exitDx=0;exitDy=0;entryX=0.5;entryY=0;entryDx=0;entryDy=0;" edge="1" parent="1" source="XChZpc23m_ZPnFrmhCxJ-58" target="XChZpc23m_ZPnFrmhCxJ-60">
          <mxGeometry relative="1" as="geometry" />
        </mxCell>
        <mxCell id="XChZpc23m_ZPnFrmhCxJ-58" value="формирование ответного сообщения из списка объектов" style="rounded=1;whiteSpace=wrap;html=1;absoluteArcSize=1;arcSize=14;strokeWidth=2;" vertex="1" parent="1">
          <mxGeometry x="630" y="670" width="140" height="70" as="geometry" />
        </mxCell>
        <mxCell id="XChZpc23m_ZPnFrmhCxJ-60" value="&lt;div&gt;отправка&lt;/div&gt;&lt;div&gt;ответного&lt;/div&gt;&lt;div&gt;сообщения&lt;br&gt;&lt;/div&gt;" style="shape=parallelogram;html=1;strokeWidth=2;perimeter=parallelogramPerimeter;whiteSpace=wrap;rounded=1;arcSize=12;size=0.23;" vertex="1" parent="1">
          <mxGeometry x="630" y="770" width="140" height="70" as="geometry" />
        </mxCell>
        <mxCell id="XChZpc23m_ZPnFrmhCxJ-62" value="конец" style="strokeWidth=2;html=1;shape=mxgraph.flowchart.terminator;whiteSpace=wrap;" vertex="1" parent="1">
          <mxGeometry x="630" y="870" width="140" height="70" as="geometry" />
        </mxCell>
        <mxCell id="XChZpc23m_ZPnFrmhCxJ-63" style="edgeStyle=orthogonalEdgeStyle;rounded=0;orthogonalLoop=1;jettySize=auto;html=1;exitX=0.5;exitY=1;exitDx=0;exitDy=0;entryX=0.5;entryY=0;entryDx=0;entryDy=0;entryPerimeter=0;" edge="1" parent="1" source="XChZpc23m_ZPnFrmhCxJ-60" target="XChZpc23m_ZPnFrmhCxJ-62">
          <mxGeometry relative="1" as="geometry" />
        </mxCell>
        <mxCell id="XChZpc23m_ZPnFrmhCxJ-64" style="edgeStyle=orthogonalEdgeStyle;rounded=0;orthogonalLoop=1;jettySize=auto;html=1;exitX=0.5;exitY=1;exitDx=0;exitDy=0;entryX=0.5;entryY=0;entryDx=0;entryDy=0;entryPerimeter=0;" edge="1" parent="1" source="XChZpc23m_ZPnFrmhCxJ-47" target="XChZpc23m_ZPnFrmhCxJ-62">
          <mxGeometry relative="1" as="geometry">
            <Array as="points">
              <mxPoint x="850" y="850" />
              <mxPoint x="700" y="850" />
            </Array>
          </mxGeometry>
        </mxCell>
      </root>
    </mxGraphModel>
  </diagram>
</mxfile>
